<svg width="38" height="38" viewBox="0 0 38 38" fill="none" xmlns="http://www.w3.org/2000/svg">
<rect x="1" y="1" width="36" height="36" rx="7" fill="url(#paint0_linear_2_7)" fill-opacity="0.7" stroke="url(#paint1_linear_2_7)" stroke-width="2"/>
<path d="M26.4167 29.875L19.8542 23.3125C19.3333 23.7292 18.7344 24.059 18.0573 24.3021C17.3802 24.5451 16.6597 24.6667 15.8958 24.6667C14.0035 24.6667 12.4021 24.0111 11.0917 22.7C9.78125 21.3889 9.12569 19.7875 9.125 17.8958C9.125 16.0035 9.78056 14.4021 11.0917 13.0917C12.4028 11.7812 14.0042 11.1257 15.8958 11.125C17.7882 11.125 19.3899 11.7806 20.701 13.0917C22.0122 14.4028 22.6674 16.0042 22.6667 17.8958C22.6667 18.6597 22.5451 19.3802 22.3021 20.0573C22.059 20.7344 21.7292 21.3333 21.3125 21.8542L27.875 28.4167L26.4167 29.875ZM15.8958 22.5833C17.1979 22.5833 18.3049 22.1278 19.2167 21.2167C20.1285 20.3056 20.584 19.1986 20.5833 17.8958C20.5833 16.5938 20.1278 15.4872 19.2167 14.576C18.3056 13.6649 17.1986 13.209 15.8958 13.2083C14.5938 13.2083 13.4872 13.6642 12.576 14.576C11.6649 15.4878 11.209 16.5944 11.2083 17.8958C11.2083 19.1979 11.6642 20.3049 12.576 21.2167C13.4878 22.1285 14.5944 22.584 15.8958 22.5833Z" fill="#E3E3E3"/>
<defs>
<linearGradient id="paint0_linear_2_7" x1="-11.78" y1="-7.5" x2="60.2341" y2="3.90912" gradientUnits="userSpaceOnUse">
<stop stop-color="#A238FF"/>
<stop offset="1" stop-color="#44A4FF"/>
</linearGradient>
<linearGradient id="paint1_linear_2_7" x1="-8.17" y1="-21" x2="58.8123" y2="-7.19788" gradientUnits="userSpaceOnUse">
<stop stop-color="#A238FF"/>
<stop offset="1" stop-color="#44A4FF"/>
</linearGradient>
</defs>
</svg>
